name Walk8.mot
datacolumns 19
datarows 12
range 4.35500000 4.36600000
endheader

                time	   L_ground_force_vx	   L_ground_force_vy	   L_ground_force_vz	   L_ground_force_px	   L_ground_force_py	   L_ground_force_pz	   R_ground_force_vx	   R_ground_force_vy	   R_ground_force_vz	   R_ground_force_px	   R_ground_force_py	   R_ground_force_pz	   L_ground_torque_x	   L_ground_torque_y	   L_ground_torque_z	   R_ground_torque_x	   R_ground_torque_y	   R_ground_torque_z	
          4.35500000	          0.09372169	          0.27869766	          0.01307753	         -0.00012803	          0.00000000	         -0.00002260	         -6.32271383	        871.82247195	        -64.51792007	          0.10545109	          0.00000000	          0.14788262	          0.00000000	         -0.00006710	          0.00000000	          0.00000000	         13.52717202	          0.00000000	
          4.35600000	          0.09050712	          0.27229891	          0.01300706	         -0.00017326	          0.00000000	         -0.00003097	         -6.05525965	        872.08157753	        -64.28051059	          0.10558927	          0.00000000	          0.14787871	          0.00000000	         -0.00001966	          0.00000000	          0.00000000	         13.48752307	          0.00000000	
          4.35700000	          0.08722386	          0.26541526	          0.01289343	         -0.00021400	          0.00000000	         -0.00003852	         -5.78984484	        872.36820264	        -64.04433608	          0.10572859	          0.00000000	          0.14787466	          0.00000000	          0.00002382	          0.00000000	          0.00000000	         13.44822289	          0.00000000	
          4.35800000	          0.08389016	          0.25811394	          0.01274073	         -0.00025046	          0.00000000	         -0.00004527	         -5.52622199	        872.68249791	        -63.80992972	          0.10586904	          0.00000000	          0.14787050	          0.00000000	          0.00006352	          0.00000000	          0.00000000	         13.40927809	          0.00000000	
          4.35900000	          0.08052290	          0.25045805	          0.01255288	         -0.00028288	          0.00000000	         -0.00005129	         -5.26414422	        873.02456819	        -63.57781383	          0.10601061	          0.00000000	          0.14786629	          0.00000000	          0.00009960	          0.00000000	          0.00000000	         13.37069431	          0.00000000	
          4.36000000	          0.07713766	          0.24250668	          0.01233356	         -0.00031147	          0.00000000	         -0.00005659	         -5.00336640	        873.39447349	        -63.34849861	          0.10615328	          0.00000000	          0.14786207	          0.00000000	          0.00013223	          0.00000000	          0.00000000	         13.33247620	          0.00000000	
          4.36100000	          0.07374877	          0.23431499	          0.01208629	         -0.00033645	          0.00000000	         -0.00006123	         -4.74364603	        873.79222917	        -63.12248082	          0.10629703	          0.00000000	          0.14785787	          0.00000000	          0.00016159	          0.00000000	          0.00000000	         13.29462736	          0.00000000	
          4.36200000	          0.07036933	          0.22593437	          0.01181436	         -0.00035804	          0.00000000	         -0.00006525	         -4.48474383	        874.21780504	        -62.90024230	          0.10644184	          0.00000000	          0.14785375	          0.00000000	          0.00018785	          0.00000000	          0.00000000	         13.25715036	          0.00000000	
          4.36300000	          0.06701132	          0.21741255	          0.01152092	         -0.00037644	          0.00000000	         -0.00006868	         -4.22642405	        874.67112415	        -62.68224868	          0.10658769	          0.00000000	          0.14784976	          0.00000000	          0.00021116	          0.00000000	          0.00000000	         13.22004669	          0.00000000	
          4.36400000	          0.06368560	          0.20879374	          0.01120889	         -0.00039185	          0.00000000	         -0.00007156	         -3.96845484	        875.15206182	        -62.46894796	          0.10673456	          0.00000000	          0.14784594	          0.00000000	          0.00023169	          0.00000000	          0.00000000	         13.18331678	          0.00000000	
          4.36500000	          0.06040199	          0.20011875	          0.01088103	         -0.00040447	          0.00000000	         -0.00007392	         -3.71060858	        875.66044544	        -62.26076954	          0.10688241	          0.00000000	          0.14784234	          0.00000000	          0.00024960	          0.00000000	          0.00000000	         13.14695983	          0.00000000	
          4.36600000	          0.05716932	          0.19142515	          0.01053993	         -0.00041449	          0.00000000	         -0.00007580	         -3.45266255	        876.19605500	        -62.05812344	          0.10703123	          0.00000000	          0.14783901	          0.00000000	          0.00026504	          0.00000000	          0.00000000	         13.11097362	          0.00000000	
